<svg width="800" height="100" viewBox="0 0 800 100" fill="none" xmlns="http://www.w3.org/2000/svg">
  <style>
    .card-bg {
      fill: #09090b;
      stroke: url(#profile_gradient);
      stroke-width: 1.5px;
    }
    .platform-title {
      font-family: ui-monospace, SFMono-Regular, SF Mono, Menlo, Monaco, Consolas, "Liberation Mono", "Courier New", monospace;
      font-size: 13px;
      font-weight: 700;
      fill: #ffffff;
    }
    .platform-link {
      font-family: system-ui, -apple-system, BlinkMacSystemFont, "Segoe UI", Roboto, "Helvetica Neue", Arial, sans-serif;
      font-size: 11px;
      fill: #00F0FF;
    }
  </style>
  
  <!-- Background -->
  <rect x="1" y="1" width="798" height="98" rx="8" class="card-bg"/>
  
  <!-- LeetCode (Col 1: x = 40) -->
  <g transform="translate(40, 26)">
    <!-- Custom LeetCode Icon -->
    <path d="M12 2A10 10 0 0 0 2 12a10 10 0 0 0 10 10 10 10 0 0 0 10-10A10 10 0 0 0 12 2zm-1.8 14.2l-2.4-2.4 5.6-5.6 1.4 1.4-4.6 4.6-1.4 2z" fill="#00F0FF"/>
    <text x="32" y="16" class="platform-title">LeetCode</text>
    <text x="32" y="32" class="platform-link">@karthikreddi00</text>
  </g>

  <!-- Codeforces (Col 2: x = 195) -->
  <g transform="translate(195, 26)">
    <path d="M12 2A10 10 0 0 0 2 12a10 10 0 0 0 10 10 10 10 0 0 0 10-10A10 10 0 0 0 12 2zm1 14h-2v-4h2v4zm0-6h-2V7h2v3z" fill="#A855F7"/>
    <text x="32" y="16" class="platform-title">Codeforces</text>
    <text x="32" y="32" class="platform-link">@karthikreddy00</text>
  </g>

  <!-- HackerRank (Col 3: x = 360) -->
  <g transform="translate(360, 26)">
    <path d="M12 2A10 10 0 0 0 2 12a10 10 0 0 0 10 10 10 10 0 0 0 10-10A10 10 0 0 0 12 2zm3.5 11.5l-4.5 3-4.5-3v-5l4.5-3 4.5 3v5z" fill="#00F0FF"/>
    <text x="32" y="16" class="platform-title">HackerRank</text>
    <text x="32" y="32" class="platform-link">@karthikreddi00</text>
  </g>

  <!-- CodeChef (Col 4: x = 525) -->
  <g transform="translate(525, 26)">
    <path d="M12 2A10 10 0 0 0 2 12a10 10 0 0 0 10 10 10 10 0 0 0 10-10A10 10 0 0 0 12 2zm2 10a2 2 0 1 1-4 0 2 2 0 0 1 4 0z" fill="#A855F7"/>
    <text x="32" y="16" class="platform-title">CodeChef</text>
    <text x="32" y="32" class="platform-link">@klu_2300030338</text>
  </g>

  <!-- GitHub (Col 5: x = 670) -->
  <g transform="translate(670, 26)">
    <path d="M12 2A10 10 0 0 0 2 12c0 4.42 2.87 8.17 6.84 9.5.5.08.66-.23.66-.5v-1.69c-2.77.6-3.36-1.34-3.36-1.34-.46-1.16-1.11-1.47-1.11-1.47-.9-.62.07-.6.07-.6 1 .07 1.53 1.03 1.53 1.03.9 1.52 2.34 1.07 2.91.83.1-.65.35-1.09.63-1.34-2.22-.25-4.55-1.11-4.55-4.92 0-1.11.38-2 1.03-2.71-.1-.25-.45-1.29.1-2.64 0 0 .84-.27 2.75 1.02.79-.22 1.65-.33 2.5-.33.85 0 1.71.11 2.5.33 1.91-1.29 2.75-1.02 2.75-1.02.55 1.35.2 2.39.1 2.64.65.71 1.03 1.6 1.03 2.71 0 3.82-2.34 4.66-4.57 4.91.36.31.69.92.69 1.85V21c0 .27.16.59.67.5C19.14 20.16 22 16.42 22 12A10 10 0 0 0 12 2z" fill="#00F0FF"/>
    <text x="32" y="16" class="platform-title">GitHub</text>
    <text x="32" y="32" class="platform-link">@karthikreddi00</text>
  </g>

  <defs>
    <linearGradient id="profile_gradient" x1="0" y1="0" x2="800" y2="100" gradientUnits="userSpaceOnUse">
      <stop offset="0%" stop-color="#00F0FF"/>
      <stop offset="50%" stop-color="#121214"/>
      <stop offset="100%" stop-color="#A855F7"/>
    </linearGradient>
  </defs>
</svg>
